<?xml version="1.0" encoding="UTF-8"?> <!-- Generator: Adobe Illustrator 24.2.1, SVG Export Plug-In . SVG Version: 6.00 Build 0) --> <svg xmlns="http://www.w3.org/2000/svg" xmlns:xlink="http://www.w3.org/1999/xlink" id="Слой_1" x="0px" y="0px" viewBox="0 0 2500 100" style="enable-background:new 0 0 2500 100;" xml:space="preserve"> <style type="text/css"> .st0{clip-path:url(#SVGID_2_);} .st1{fill:#F2F7F4;} .st2{fill-rule:evenodd;clip-rule:evenodd;fill:#FFFFFF;} .st3{fill-rule:evenodd;clip-rule:evenodd;fill:#E2F3E7;} </style> <g> <defs> <rect id="SVGID_1_" x="50.1" width="2402.8" height="100"></rect> </defs> <clipPath id="SVGID_2_"> <use xlink:href="#SVGID_1_" style="overflow:visible;"></use> </clipPath> <g id="Монтажная_область_1" class="st0"> <rect id="Прямоугольник_1" x="47.2" y="17.5" class="st1" width="2405.7" height="83.1"></rect> <path id="Фигура_1" class="st2" d="M42.7,31.8c106.9,21.3,219.5,36.9,335.2,46.5c114.4,9.4,219.4,11.9,328.6,10.6 c229.7-2.9,413.1-23.7,627.9-39.1c124-8.9,346.4-13.3,546.9-14.3c198.5-1,396.9,2.5,594.5,10.7c-2.5-12.1-5-24.2-7.6-36.3 C1483.1-37.8,60.4-94.2,13.2-1.2C8.1,8.8,19.2,19.9,42.7,31.8z"></path> <path id="Фигура_1_копия_2" class="st2" d="M42.4,21.7c105.9,22.2,217.7,38.8,333,49.3c113.9,10.4,218.8,13.8,328,13.3 c229.8-1,414-20.2,629.6-33.8c124.4-7.9,347-10.4,547.4-9.8c198.5,0.6,396.7,5.9,593.9,15.6c-2-12.1-4-24.3-5.9-36.4 C1485.6-35.8,65.7-104.1,14.3-11.5C8.8-1.5,19.4,9.7,42.4,21.7z"></path> <path id="Фигура_1_копия" class="st3" d="M42.4,26.6C148.8,48.4,261,64.5,376.5,74.5c114.1,9.9,219.1,12.9,328.3,12 c229.7-1.9,413.6-21.9,628.8-36.4c124.2-8.4,346.7-11.8,547.2-12c198.5-0.2,396.8,4.2,594.2,13.2c-2.2-12.1-4.5-24.2-6.7-36.4 C1484.3-36.7,63-99.3,13.6-6.5C8.3,3.5,19.2,14.7,42.4,26.6z"></path> </g> </g> </svg> 