<?xml version="1.0" standalone="no"?>
<!DOCTYPE svg PUBLIC "-//W3C//DTD SVG 20010904//EN"
 "http://www.w3.org/TR/2001/REC-SVG-20010904/DTD/svg10.dtd">
<svg version="1.0" xmlns="http://www.w3.org/2000/svg"
 width="23.000000pt" height="23.000000pt" viewBox="0 0 23.000000 23.000000"
 preserveAspectRatio="xMidYMid meet">

<g transform="translate(0.000000,23.000000) scale(0.100000,-0.100000)"
fill="#000000" stroke="none">
<path d="M7 223 c-4 -5 14 -29 38 -53 25 -24 45 -49 45 -54 0 -6 -21 -32 -47
-58 -28 -29 -41 -48 -32 -48 8 0 35 20 59 45 l44 45 48 -47 c26 -26 51 -44 55
-40 4 4 -14 29 -40 55 l-47 48 45 44 c25 24 45 51 45 59 0 9 -21 -6 -52 -37
l-53 -52 -51 51 c-28 28 -54 47 -57 42z"/>
</g>
</svg>
